<svg id="visual" viewBox="0 0 900 675" width="900" height="675" xmlns="http://www.w3.org/2000/svg" xmlns:xlink="http://www.w3.org/1999/xlink" version="1.1"><rect x="0" y="0" width="900" height="675" fill="#001220"></rect><defs><linearGradient id="grad1_0" x1="25%" y1="100%" x2="100%" y2="0%"><stop offset="23.333333333333336%" stop-color="#27415d" stop-opacity="1"></stop><stop offset="76.66666666666666%" stop-color="#27415d" stop-opacity="1"></stop></linearGradient></defs><defs><linearGradient id="grad1_1" x1="25%" y1="100%" x2="100%" y2="0%"><stop offset="23.333333333333336%" stop-color="#27415d" stop-opacity="1"></stop><stop offset="76.66666666666666%" stop-color="#001220" stop-opacity="1"></stop></linearGradient></defs><defs><linearGradient id="grad2_0" x1="0%" y1="100%" x2="75%" y2="0%"><stop offset="23.333333333333336%" stop-color="#27415d" stop-opacity="1"></stop><stop offset="76.66666666666666%" stop-color="#27415d" stop-opacity="1"></stop></linearGradient></defs><defs><linearGradient id="grad2_1" x1="0%" y1="100%" x2="75%" y2="0%"><stop offset="23.333333333333336%" stop-color="#001220" stop-opacity="1"></stop><stop offset="76.66666666666666%" stop-color="#27415d" stop-opacity="1"></stop></linearGradient></defs><g transform="translate(900, 675)"><path d="M-309.4 0C-309.8 -29.5 -310.3 -59.1 -291.7 -78.2C-273.1 -97.2 -235.5 -105.8 -222.6 -128.5C-209.7 -151.2 -221.6 -187.9 -214.3 -214.3C-207 -240.6 -180.5 -256.7 -154.7 -267.9C-128.9 -279.2 -103.8 -285.6 -78.2 -291.7C-52.5 -297.8 -26.2 -303.6 0 -309.4L0 0Z" fill="#13293d"></path><path d="M-154.7 0C-154.9 -14.8 -155.2 -29.5 -145.9 -39.1C-136.6 -48.6 -117.7 -52.9 -111.3 -64.3C-104.8 -75.6 -110.8 -93.9 -107.1 -107.1C-103.5 -120.3 -90.2 -128.3 -77.3 -134C-64.5 -139.6 -51.9 -142.8 -39.1 -145.9C-26.2 -148.9 -13.1 -151.8 0 -154.7L0 0Z" fill="#27415d"></path></g><g transform="translate(0, 0)"><path d="M309.4 0C307.6 26.7 305.8 53.4 298.8 80.1C291.9 106.7 279.8 133.4 256.3 148C232.8 162.6 197.9 165.3 174.7 174.7C151.4 184.1 139.8 200.2 125 216.5C110.2 232.8 92.3 249.2 70.9 264.7C49.6 280.2 24.8 294.8 0 309.4L0 0Z" fill="#13293d"></path><path d="M154.7 0C153.8 13.4 152.9 26.7 149.4 40C146 53.4 139.9 66.7 128.2 74C116.4 81.3 99 82.6 87.3 87.3C75.7 92 69.9 100.1 62.5 108.3C55.1 116.4 46.1 124.6 35.5 132.3C24.8 140.1 12.4 147.4 0 154.7L0 0Z" fill="#27415d"></path></g></svg>